<svg width="14" height="11" viewBox="0 0 14 11" fill="none" xmlns="http://www.w3.org/2000/svg">
<path d="M14 2.59375V1.75C14 0.7835 13.3144 0 12.4688 0H1.53125C0.685562 0 0 0.7835 0 1.75V2.59375C0 2.63519 0.0144043 2.67493 0.040044 2.70424C0.0656837 2.73354 0.100459 2.75 0.136719 2.75H13.8633C13.8995 2.75 13.9343 2.73354 13.96 2.70424C13.9856 2.67493 14 2.63519 14 2.59375ZM0 3.90625V9.25C0 10.2165 0.685562 11 1.53125 11H12.4688C13.3144 11 14 10.2165 14 9.25V3.90625C14 3.86481 13.9856 3.82507 13.96 3.79576C13.9343 3.76646 13.8995 3.75 13.8633 3.75H0.136719C0.100459 3.75 0.0656837 3.76646 0.040044 3.79576C0.0144043 3.82507 0 3.86481 0 3.90625ZM3.5 8C3.5 8.27612 3.30411 8.5 3.0625 8.5H2.625C2.38339 8.5 2.1875 8.27612 2.1875 8V7.5C2.1875 7.22388 2.38339 7 2.625 7H3.0625C3.30411 7 3.5 7.22388 3.5 7.5V8Z" fill="white"/>
</svg>
