<svg width="11" height="11" viewBox="0 0 11 11" fill="none" xmlns="http://www.w3.org/2000/svg">
<path d="M10.7825 1.32954C10.9237 1.18369 11.0017 0.988354 11 0.785595C10.9982 0.582836 10.9167 0.38888 10.7731 0.245502C10.6295 0.102124 10.4352 0.0207961 10.2321 0.0190342C10.029 0.0172723 9.8333 0.0952175 9.68719 0.236082L5.50952 4.40654L1.33184 0.236082C1.26038 0.162223 1.17491 0.103311 1.0804 0.0627826C0.985886 0.0222542 0.884236 0.000921455 0.781379 2.91979e-05C0.678522 -0.000863059 0.576517 0.0187028 0.481315 0.0575855C0.386114 0.0964682 0.299623 0.153889 0.226889 0.226497C0.154155 0.299105 0.0966352 0.385447 0.0576852 0.480484C0.0187352 0.57552 -0.000864553 0.67735 2.92484e-05 0.780029C0.00092305 0.882709 0.0222927 0.984182 0.0628912 1.07853C0.10349 1.17288 0.162504 1.25821 0.236491 1.32954L4.41417 5.5L0.236491 9.67046C0.162504 9.74179 0.10349 9.82712 0.0628912 9.92147C0.0222927 10.0158 0.00092305 10.1173 2.92484e-05 10.22C-0.000864553 10.3227 0.0187352 10.4245 0.0576852 10.5195C0.0966352 10.6146 0.154155 10.7009 0.226889 10.7735C0.299623 10.8461 0.386114 10.9035 0.481315 10.9424C0.576517 10.9813 0.678522 11.0009 0.781379 11C0.884236 10.9991 0.985886 10.9777 1.0804 10.9372C1.17491 10.8967 1.26038 10.8378 1.33184 10.7639L5.50952 6.59346L9.68719 10.7639C9.8333 10.9048 10.029 10.9827 10.2321 10.981C10.4352 10.9792 10.6295 10.8979 10.7731 10.7545C10.9167 10.6111 10.9982 10.4172 11 10.2144C11.0017 10.0116 10.9237 9.81631 10.7825 9.67046L6.60487 5.5L10.7825 1.32954Z" fill="#00A2EA"/>
</svg>
