<svg width="14" height="12" viewBox="0 0 14 12" fill="none" xmlns="http://www.w3.org/2000/svg">
<path d="M13.2632 9.6V10.8C13.2632 11.4619 12.7317 12 12.0789 12H1.89474C0.849789 12 0 11.1389 0 10.08V1.92C0 0.86112 0.849789 0 1.89474 0H10.6579C10.7512 -1.99253e-09 10.8436 0.0186233 10.9298 0.0548067C11.016 0.0909901 11.0943 0.144025 11.1603 0.210883C11.2263 0.277741 11.2786 0.357113 11.3143 0.444468C11.35 0.531822 11.3684 0.625448 11.3684 0.72C11.3684 0.814552 11.35 0.908178 11.3143 0.995532C11.2786 1.08289 11.2263 1.16226 11.1603 1.22912C11.0943 1.29598 11.016 1.34901 10.9298 1.38519C10.8436 1.42138 10.7512 1.44 10.6579 1.44H1.89474C1.77277 1.44553 1.65761 1.49852 1.57324 1.58793C1.48886 1.67734 1.44177 1.79629 1.44177 1.92C1.44177 2.04371 1.48886 2.16266 1.57324 2.25207C1.65761 2.34148 1.77277 2.39447 1.89474 2.4H12.0789C12.7317 2.4 13.2632 2.93808 13.2632 3.6V4.8H10.8947C9.58879 4.8 8.52632 5.87664 8.52632 7.2C8.52632 8.52336 9.58879 9.6 10.8947 9.6H13.2632Z" fill="white"/>
<path d="M13.263 5.68419V8.84208H10.8946C10.5177 8.84208 10.1563 8.67573 9.88979 8.37962C9.62329 8.08351 9.47357 7.6819 9.47357 7.26314C9.47357 6.84437 9.62329 6.44276 9.88979 6.14665C10.1563 5.85054 10.5177 5.68419 10.8946 5.68419H13.263Z" fill="white"/>
</svg>
