<svg width="12" height="9" viewBox="0 0 12 9" fill="none" xmlns="http://www.w3.org/2000/svg">
<path d="M12 2.12216V1.43182C12 0.641045 11.4124 0 10.6875 0H1.3125C0.587625 0 0 0.641045 0 1.43182V2.12216C0 2.15606 0.0123465 2.18858 0.0343234 2.21256C0.0563003 2.23653 0.0861074 2.25 0.117188 2.25H11.8828C11.9139 2.25 11.9437 2.23653 11.9657 2.21256C11.9877 2.18858 12 2.15606 12 2.12216ZM0 3.19602V7.56818C0 8.35895 0.587625 9 1.3125 9H10.6875C11.4124 9 12 8.35895 12 7.56818V3.19602C12 3.16212 11.9877 3.1296 11.9657 3.10563C11.9437 3.08165 11.9139 3.06818 11.8828 3.06818H0.117188C0.0861074 3.06818 0.0563003 3.08165 0.0343234 3.10563C0.0123465 3.1296 0 3.16212 0 3.19602ZM3 6.54545C3 6.77138 2.83209 6.95455 2.625 6.95455H2.25C2.04291 6.95455 1.875 6.77138 1.875 6.54545V6.13636C1.875 5.91044 2.04291 5.72727 2.25 5.72727H2.625C2.83209 5.72727 3 5.91044 3 6.13636V6.54545Z" fill="#00A2EA"/>
</svg>
