<svg width="13" height="11" viewBox="0 0 13 11" fill="none" xmlns="http://www.w3.org/2000/svg">
<path d="M12.1579 8.8V9.9C12.1579 10.5068 11.6707 11 11.0724 11H1.73684C0.778974 11 0 10.2106 0 9.24V1.76C0 0.78936 0.778974 0 1.73684 0H9.76974C9.85527 -1.82648e-09 9.93996 0.0170713 10.019 0.0502394C10.098 0.0834076 10.1698 0.132023 10.2303 0.193309C10.2908 0.254596 10.3387 0.327354 10.3715 0.407429C10.4042 0.487504 10.4211 0.573328 10.4211 0.66C10.4211 0.746672 10.4042 0.832496 10.3715 0.912571C10.3387 0.992646 10.2908 1.0654 10.2303 1.12669C10.1698 1.18798 10.098 1.23659 10.019 1.26976C9.93996 1.30293 9.85527 1.32 9.76974 1.32H1.73684C1.62504 1.32507 1.51948 1.37364 1.44213 1.4556C1.36479 1.53756 1.32162 1.6466 1.32162 1.76C1.32162 1.8734 1.36479 1.98244 1.44213 2.0644C1.51948 2.14636 1.62504 2.19493 1.73684 2.2H11.0724C11.6707 2.2 12.1579 2.69324 12.1579 3.3V4.4H9.98684C8.78972 4.4 7.81579 5.38692 7.81579 6.6C7.81579 7.81308 8.78972 8.8 9.98684 8.8H12.1579Z" fill="#00A2EA"/>
<path d="M12.1579 5.21051V8.10525H9.98684C9.64136 8.10525 9.31003 7.95276 9.06574 7.68132C8.82145 7.40989 8.6842 7.04174 8.6842 6.65788C8.6842 6.27401 8.82145 5.90587 9.06574 5.63443C9.31003 5.363 9.64136 5.21051 9.98684 5.21051H12.1579Z" fill="#00A2EA"/>
</svg>
